<?xml version="1.0" encoding="UTF-8"?>
<svg version="1.1" xmlns="http://www.w3.org/2000/svg" width="512" height="512">
<path d="M0 0 C1.37717949 -0.01073296 1.37717949 -0.01073296 2.78218079 -0.02168274 C3.78740784 -0.02437164 4.79263489 -0.02706055 5.82832336 -0.02983093 C6.88880386 -0.03640213 7.94928436 -0.04297333 9.04190063 -0.04974365 C12.55835539 -0.06948564 16.07476741 -0.08114184 19.59126282 -0.09111023 C20.79210825 -0.09518576 21.99295368 -0.09926128 23.23018837 -0.10346031 C29.58711704 -0.12432574 35.9440241 -0.13862496 42.30097961 -0.147995 C48.86373034 -0.15905518 55.42614161 -0.19344973 61.98877239 -0.23316669 C67.03746161 -0.25932667 72.08606991 -0.26768636 77.13482094 -0.27127647 C79.55368655 -0.27614466 81.9725485 -0.28776515 84.39134789 -0.30631447 C87.78076851 -0.33068976 91.16931047 -0.32974322 94.55879211 -0.32279968 C96.05145096 -0.34201477 96.05145096 -0.34201477 97.57426453 -0.36161804 C105.28914648 -0.30415221 110.66966663 1.3731166 116.24751282 6.80732727 C119.16445669 10.71236615 120.96534778 15.10883177 122.82954407 19.58467102 C123.45687439 21.05831116 123.45687439 21.05831116 124.09687805 22.5617218 C125.58696754 26.08336619 127.0560113 29.61340538 128.51704407 33.14717102 C128.94110535 34.17279144 128.94110535 34.17279144 129.37373352 35.21913147 C132.64764726 43.14543714 135.90028521 51.08040878 139.14387512 59.01916504 C144.00249784 70.91040437 148.90742524 82.78208777 153.82954407 94.64717102 C154.19588959 95.53088379 154.56223511 96.41459656 154.93968201 97.3250885 C155.98186296 99.83892106 157.02469407 102.35248266 158.06782532 104.86592102 C158.37339355 105.60279144 158.67896179 106.33966187 158.99378967 107.09886169 C159.28288208 107.79478424 159.57197449 108.49070679 159.86982727 109.2077179 C160.14340057 109.86828186 160.41697388 110.52884583 160.69883728 111.20942688 C161.25051584 112.5159571 161.81713251 113.81626705 162.39750671 115.11030579 C163.68213646 117.98216799 164.51704407 119.96027879 164.51704407 123.14717102 C169.13704407 123.14717102 173.75704407 123.14717102 178.51704407 123.14717102 C179.17704407 121.82717102 179.83704407 120.50717102 180.51704407 119.14717102 C185.55972442 113.21405455 190.59457729 107.52771969 198.51704407 106.14717102 C199.17833313 106.01310852 199.83962219 105.87904602 200.52095032 105.74092102 C211.41386655 104.61752634 222.98397737 113.90795946 231.84907532 119.32295227 C237.32425201 122.65593678 242.8625582 125.88122706 248.39631653 129.11555481 C250.27240529 130.21280659 252.14735933 131.31197107 254.02192688 132.41181946 C259.75485664 135.77514932 265.48981221 139.13450685 271.23979187 142.46862793 C273.68934303 143.89100391 276.13476755 145.32037218 278.579422 146.75114441 C280.27809301 147.74215432 281.98196865 148.72422624 283.68598938 149.70600891 C292.92805728 155.12670002 300.33269449 160.0792435 304.82954407 170.02217102 C305.16147766 170.7189093 305.49341125 171.41564758 305.83540344 172.13349915 C308.12628411 177.02951648 310.03059284 181.94459172 311.51704407 187.14717102 C312.14610657 186.64185852 312.77516907 186.13654602 313.42329407 185.61592102 C314.27923157 184.96623352 315.13516907 184.31654602 316.01704407 183.64717102 C316.85235657 182.99748352 317.68766907 182.34779602 318.54829407 181.67842102 C322.29707646 179.74483852 325.43749519 179.14301977 329.51704407 180.14717102 C332.23070233 181.8144857 334.31812927 183.92151859 336.51704407 186.20967102 C337.74559976 187.41862555 338.97476093 188.62696511 340.20454407 189.83467102 C341.07079407 190.70478821 341.07079407 190.70478821 341.95454407 191.59248352 C343.74645777 193.37543766 345.60262043 195.05930582 347.51704407 196.70967102 C348.12161438 197.2330304 348.72618469 197.75638977 349.34907532 198.29560852 C351.11489239 199.80371175 352.88372946 201.30808923 354.65376282 202.81123352 C361.23486974 208.41005817 367.70846357 214.08828255 374.02558899 219.98432922 C376.96998013 222.73093894 379.95229834 225.41082401 383.01704407 228.02217102 C391.04773846 235.08305698 391.04773846 235.08305698 391.95845032 239.08857727 C392.19866044 243.17214938 391.56530215 246.06956448 389.13887024 249.50068665 C385.29645931 253.40151749 380.14539315 255.7788322 375.39204407 258.39717102 C374.21782254 259.055785 373.04424254 259.71554399 371.87129211 260.37641907 C369.52712412 261.69429733 367.17863894 263.00391865 364.8261261 264.30683899 C361.88599437 265.94198086 358.9619027 267.60103545 356.04438782 269.27607727 C354.47309651 270.17117625 352.90150617 271.0657506 351.32954407 271.95967102 C350.63135559 272.36153625 349.93316711 272.76340149 349.21382141 273.17744446 C340.75017935 277.91708401 332.23714114 279.69297847 322.68110657 277.49482727 C315.53796914 275.16380343 308.04028555 271.57852387 304.19111633 264.81855774 C303.78433655 263.996297 303.37755676 263.17403625 302.95845032 262.32685852 C299.34957423 256.12674694 294.5292802 253.58067588 288.26704407 250.39717102 C286.28202503 249.341089 284.29764462 248.2838057 282.31391907 247.22529602 C281.35034485 246.7154718 280.38677063 246.20564758 279.39399719 245.68037415 C276.55124393 244.16539702 273.71480638 242.64919592 270.90766907 241.06904602 C270.10877258 240.62657532 269.3098761 240.18410461 268.48677063 239.72822571 C265.9081572 237.65843139 265.33980367 236.36007178 264.51704407 233.14717102 C264.2674061 230.13610165 264.28405305 227.1472698 264.32173157 224.12763977 C264.32597641 222.83978325 264.32597641 222.83978325 264.33030701 221.52590942 C264.34146336 218.79535227 264.36655948 216.06512832 264.39204407 213.33467102 C264.40207975 211.47855598 264.41120457 209.62243578 264.41938782 207.76631165 C264.44138781 203.22647057 264.47588626 198.68687721 264.51704407 194.14717102 C263.96532532 193.90224915 263.41360657 193.65732727 262.84516907 193.40498352 C260.04064915 191.88978988 257.73601284 190.03632976 255.26704407 188.02217102 C254.37501282 187.2977179 253.48298157 186.57326477 252.56391907 185.82685852 C251.55071594 184.99541321 251.55071594 184.99541321 250.51704407 184.14717102 C250.51117783 184.74550247 250.50531158 185.34383392 250.49926758 185.96029663 C250.4351694 192.20640706 250.35070757 198.45201007 250.2545929 204.69770813 C250.22140658 207.02641598 250.19335519 209.35520304 250.17060852 211.68403625 C250.13694737 215.03797559 250.08462408 218.39119308 250.02876282 221.74482727 C250.02237289 222.78051346 250.01598297 223.81619965 250.00939941 224.88327026 C249.84504289 233.02454171 248.38888648 239.10756168 242.51704407 245.14717102 C237.44511682 248.34685886 233.43075539 248.52599284 227.64204407 248.33467102 C226.85829407 248.32113586 226.07454407 248.30760071 225.26704407 248.2936554 C223.35007624 248.25858891 221.43346655 248.20479174 219.51704407 248.14717102 C219.50286438 248.79041321 219.48868469 249.4336554 219.47407532 250.09638977 C218.60676701 266.52836607 210.20394502 280.9141303 198.51704407 292.14717102 C182.97433616 305.0742776 165.21600111 308.52484165 145.51704407 307.14717102 C141.54240497 306.64727806 138.20731137 305.69217685 134.51704407 304.14717102 C133.62106506 303.77592102 133.62106506 303.77592102 132.70698547 303.39717102 C115.72020964 296.16911176 103.67346873 284.98202533 96.11079407 267.98701477 C93.51266807 261.09270185 92.51704407 255.60472611 92.51704407 248.14717102 C83.27704407 248.14717102 74.03704407 248.14717102 64.51704407 248.14717102 C64.51704407 250.45717102 64.51704407 252.76717102 64.51704407 255.14717102 C60.66752794 272.63128618 51.11057249 288.0633608 35.88813782 297.83467102 C19.69916349 307.04603622 1.84523946 310.0170828 -16.35795593 305.58467102 C-33.74406349 300.21928084 -47.34244285 289.56977485 -55.91264343 273.45967102 C-59.80007797 265.36276594 -62.73410082 257.20160518 -62.48295593 248.14717102 C-64.07623718 248.23418274 -64.07623718 248.23418274 -65.70170593 248.32295227 C-79.58359092 248.8578807 -79.58359092 248.8578807 -85.00248718 244.64717102 C-89.57036331 240.01903268 -91.56923798 235.65997978 -91.70756531 229.25190735 C-91.73008362 228.25689713 -91.75260193 227.2618869 -91.77580261 226.23672485 C-91.84698463 221.68148096 -91.90433347 217.12639635 -91.94291687 212.570755 C-91.96951258 210.17211427 -92.01042466 207.77358765 -92.06596375 205.3754425 C-92.14526033 201.90956083 -92.17825493 198.44585923 -92.20170593 194.97920227 C-92.23469788 193.91434097 -92.26768982 192.84947968 -92.30168152 191.75234985 C-92.28381853 185.06262623 -91.12012027 181.54795615 -86.3692627 176.77073669 C-84.49624707 175.15861086 -82.56196934 173.66859386 -80.58842468 172.18232727 C-76.559006 168.21367055 -76.75601364 163.62078053 -76.69752502 158.29771423 C-76.70772621 156.05912799 -76.74792949 153.82275622 -76.79545593 151.58467102 C-76.82708936 149.3391803 -76.84822128 147.09505649 -76.84603882 144.84933472 C-76.84622708 142.81492806 -76.88101982 140.78061096 -76.91777039 138.74653625 C-76.33052769 133.88538009 -74.25609743 130.93303842 -70.85014343 127.50263977 C-66.98424724 124.47671578 -64.99793813 123.0200342 -60.12504578 123.03364563 C-58.77387161 123.03375893 -58.77387161 123.03375893 -57.395401 123.03387451 C-56.4214035 123.0390358 -55.44740601 123.04419708 -54.44389343 123.04951477 C-53.44790131 123.05092972 -52.45190918 123.05234467 -51.42573547 123.05380249 C-48.23644541 123.05941166 -45.04722488 123.07196572 -41.85795593 123.08467102 C-39.69910278 123.08968484 -37.54024853 123.09424795 -35.38139343 123.0983429 C-30.08189044 123.10938407 -24.78242815 123.12613115 -19.48295593 123.14717102 C-19.4866431 122.59794228 -19.49033028 122.04871353 -19.49412918 121.48284149 C-19.58261933 108.09439193 -19.64847727 94.70599389 -19.69020462 81.31731415 C-19.71106341 74.84252002 -19.73935058 68.36793726 -19.78471375 61.89326477 C-19.82823133 55.64277066 -19.8521059 49.39247964 -19.8624649 43.1418457 C-19.86984557 40.75925501 -19.88425826 38.3766752 -19.90587616 35.99417114 C-19.93498773 32.6523502 -19.93890855 29.31136436 -19.9370575 25.96943665 C-19.9514386 24.98831909 -19.9658197 24.00720154 -19.9806366 22.99635315 C-19.9381411 15.88839722 -18.5518147 10.25137174 -13.44779968 5.08857727 C-12.44426453 4.40601868 -12.44426453 4.40601868 -11.42045593 3.70967102 C-10.41305359 3.00004211 -10.41305359 3.00004211 -9.38529968 2.27607727 C-6.21615514 0.39541449 -3.60327751 0.01929589 0 0 Z M-4.58041382 15.05070496 C-7.31903151 19.50791864 -7.14641816 23.21500777 -7.05058289 28.35346985 C-7.05131302 29.37832489 -7.05204315 30.40317993 -7.05279541 31.45909119 C-7.0493163 34.84133615 -7.01043779 38.22219834 -6.97123718 41.60420227 C-6.96191026 43.95117439 -6.95479358 46.29815626 -6.94979858 48.6451416 C-6.93071957 54.81853675 -6.88160984 60.99134252 -6.82627869 67.164505 C-6.77510637 73.46528653 -6.75228878 79.76616341 -6.72709656 86.0670929 C-6.67349292 98.42737771 -6.58816828 110.78722533 -6.48295593 123.14717102 C-1.20295593 123.14717102 4.07704407 123.14717102 9.51704407 123.14717102 C9.52513092 122.01155731 9.53321777 120.8759436 9.54154968 119.70591736 C9.61891401 109.02251766 9.70662837 98.33924685 9.80457115 87.6560154 C9.85459363 82.16318429 9.90092299 76.67037297 9.93891907 71.17744446 C9.97569686 65.88002491 10.02203601 60.58276863 10.07510757 55.28548813 C10.09369156 53.26084115 10.10878458 51.23615913 10.12038803 49.21146011 C10.1371822 46.38338114 10.16620013 43.5556794 10.19819641 40.72773743 C10.2003566 39.88401077 10.20251678 39.04028412 10.20474243 38.17098999 C10.28893974 32.37527534 10.28893974 32.37527534 12.51704407 30.14717102 C14.30925941 29.88545799 14.30925941 29.88545799 16.51597595 29.86869812 C17.35172653 29.85753464 18.18747711 29.84637115 19.04855347 29.83486938 C19.96708603 29.8327092 20.88561859 29.83054901 21.83198547 29.82832336 C22.79788101 29.81827774 23.76377655 29.80823212 24.75894165 29.79788208 C27.96215704 29.76690929 31.16528835 29.74997585 34.36860657 29.73310852 C36.58536001 29.71440821 38.80210626 29.69483567 41.0188446 29.67442322 C46.86152409 29.62297592 52.70422669 29.58341773 58.54701233 29.54627991 C64.50583166 29.50631906 70.46455382 29.4551907 76.42329407 29.40498352 C88.12114259 29.30807514 99.81904583 29.22371824 111.51704407 29.14717102 C109.33379041 20.09036183 109.33379041 20.09036183 103.51704407 13.14717102 C100.1326998 12.30029971 96.86459323 12.33682154 93.39009094 12.38667297 C92.37326736 12.37776535 91.35644379 12.36885773 90.30880737 12.35968018 C86.95048193 12.3383846 83.59407258 12.36071265 80.23579407 12.38545227 C77.90079044 12.38395002 75.56578733 12.38052042 73.23078918 12.37524414 C68.33815925 12.37091124 63.44618809 12.38776276 58.55366516 12.4198761 C52.28189139 12.45965651 46.01135304 12.45035833 39.7395401 12.42564106 C34.9182065 12.41145957 30.09716155 12.42154365 25.27584839 12.43915367 C22.96338592 12.44500446 20.65089393 12.44369971 18.33843994 12.43512917 C15.10629112 12.4271396 11.87595345 12.45137507 8.64399719 12.48432922 C7.68800125 12.47577911 6.73200531 12.467229 5.74703979 12.4584198 C1.49154168 12.533322 -0.89821513 12.78782022 -4.58041382 15.05070496 Z M22.51704407 42.14717102 C22.51704407 68.87717102 22.51704407 95.60717102 22.51704407 123.14717102 C25.48704407 123.80717102 28.45704407 124.46717102 31.51704407 125.14717102 C38.25318225 127.8568615 42.2340296 132.79698041 45.51704407 139.14717102 C46.66614061 142.69311284 46.67281897 146.10116954 46.72798157 149.81123352 C46.75634094 151.0977179 46.78470032 152.38420227 46.81391907 153.70967102 C46.85532475 155.74840785 46.89223303 157.78688922 46.91841125 159.82588196 C46.94592727 161.80039336 46.99291217 163.77460344 47.04048157 165.74873352 C47.0603009 166.92774231 47.08012024 168.1067511 47.10054016 169.32148743 C47.23798645 170.25396301 47.37543274 171.1864386 47.51704407 172.14717102 C50.54102945 174.16316127 51.14864909 174.40108857 54.54194641 174.43769836 C55.34643219 174.45045807 56.15091797 174.46321777 56.9797821 174.47636414 C57.84543793 174.47858978 58.71109375 174.48081543 59.60298157 174.48310852 C60.4969162 174.48976532 61.39085083 174.49642212 62.31187439 174.50328064 C64.20316002 174.51340571 66.09448136 174.5180977 67.98579407 174.51777649 C70.87441673 174.52214437 73.76150482 174.55844997 76.64985657 174.59638977 C78.48839302 174.60225908 80.32693671 174.60622771 82.16548157 174.60810852 C83.02708893 174.62247955 83.88869629 174.63685059 84.77641296 174.6516571 C88.76715791 174.62137049 90.95068598 174.49684971 94.41035461 172.36079407 C96.28633793 170.38958758 97.98634664 168.4743607 99.57563782 166.26826477 C100.11970276 165.52085022 100.6637677 164.77343567 101.22431946 164.00337219 C101.79529358 163.20520081 102.3662677 162.40702942 102.95454407 161.58467102 C104.19139758 159.88145477 105.42838067 158.1783326 106.66548157 156.47529602 C107.29808899 155.59937805 107.93069641 154.72346008 108.58247375 153.82099915 C111.72615297 149.47602505 114.90208986 145.15497211 118.07954407 140.83467102 C118.65051819 140.05341858 119.22149231 139.27216614 119.80976868 138.46723938 C129.43058028 125.36167949 129.43058028 125.36167949 133.51704407 124.14717102 C136.43034129 123.78711736 139.3350348 123.63886791 142.26704407 123.52217102 C143.0598175 123.48349915 143.85259094 123.44482727 144.66938782 123.40498352 C146.61823823 123.31106302 148.56760857 123.2280428 150.51704407 123.14717102 C148.45294858 116.64385899 146.04423346 110.34532017 143.41938782 104.04951477 C143.0284343 103.10485855 142.63748077 102.16020233 142.23468018 101.18692017 C140.97761703 98.1515908 139.71618536 95.11809996 138.45454407 92.08467102 C137.59183174 90.00436891 136.72936481 87.92396501 135.86714172 85.84346008 C133.7874611 80.82742062 131.70421725 75.81287185 129.61940002 70.79896545 C128.35930349 67.76771502 127.10100733 64.73572061 125.8430481 61.70358276 C123.94357583 57.12604836 122.04215549 52.54931451 120.13423157 47.97529602 C119.84145325 47.27307922 119.54867493 46.57086243 119.24702454 45.84736633 C118.70986132 44.59626109 118.12594614 43.36497516 117.51704407 42.14717102 C86.16704407 42.14717102 54.81704407 42.14717102 22.51704407 42.14717102 Z M195.51704407 123.14717102 C197.02473726 127.0020684 199.18529954 128.64367562 202.51704407 131.02217102 C203.60303288 131.81067496 204.6875744 132.60117463 205.77095032 133.39326477 C206.36665833 133.8275177 206.96236633 134.26177063 207.5761261 134.70918274 C211.25383361 137.43392453 214.84880232 140.26582291 218.45454407 143.08467102 C220.00905622 144.29713546 221.56374183 145.50937753 223.11860657 146.72138977 C223.86658508 147.30452942 224.6145636 147.88766907 225.38520813 148.48847961 C230.41072853 152.39862455 235.46573718 156.2704374 240.51704407 160.14717102 C243.22425383 162.2284983 245.93059126 164.31095938 248.63667297 166.39375305 C251.37970892 168.50460816 254.12445694 170.61316671 256.87251282 172.71748352 C257.43067688 173.14545227 257.98884094 173.57342102 258.56391907 174.01435852 C260.09334321 175.18691703 261.6235235 176.35848905 263.15376282 177.52998352 C263.91040222 178.15368835 263.91040222 178.15368835 264.68232727 178.78999329 C266.5764071 180.26417829 266.5764071 180.26417829 269.13887024 181.51802063 C272.40509754 183.47580411 274.33489344 185.00137286 276.51704407 188.14717102 C277.7128824 193.85617868 276.97405775 199.87485859 276.61323547 205.65061951 C275.43965255 219.39739803 275.43965255 219.39739803 279.36909485 232.13349915 C284.00186361 236.34354565 291.04023544 240.14717102 297.51704407 240.14717102 C297.5368634 238.95639954 297.55668274 237.76562805 297.57710266 236.53877258 C297.65321401 232.1179857 297.74192301 227.69752559 297.83442688 223.27705383 C297.87269375 221.36435907 297.90755064 219.45159291 297.93891907 217.53877258 C297.98461934 214.7881876 298.04260551 212.03809319 298.10298157 209.28779602 C298.11453278 208.43348999 298.12608398 207.57918396 298.13798523 206.69898987 C298.15785492 205.89846191 298.17772461 205.09793396 298.19819641 204.27314758 C298.21152008 203.57143433 298.22484375 202.86972107 298.23857117 202.14674377 C298.56115978 199.83039846 299.45266591 198.21344896 300.51704407 196.14717102 C300.14807495 191.47356222 298.07436158 187.08334 296.32954407 182.77217102 C296.05046204 182.04256165 295.77138 181.31295227 295.48384094 180.56123352 C291.3142253 170.25225004 284.74149641 165.59369881 275.26704407 160.14717102 C274.16731262 159.50127014 273.06758118 158.85536926 271.93452454 158.18989563 C269.04142459 156.49537739 266.14233067 154.81259528 263.23738098 153.13856506 C261.57144398 152.17852055 259.90701085 151.21586788 258.24263 150.25312805 C253.97895457 147.78711388 249.71342039 145.32446614 245.44136047 142.8730011 C235.9537029 137.42500463 226.5410528 131.85536584 217.1464386 126.24897766 C215.53938049 125.29172791 215.53938049 125.29172791 213.89985657 124.31513977 C212.95513489 123.75077209 212.01041321 123.18640442 211.0370636 122.60493469 C204.63839558 118.90347696 201.49399749 117.83432353 195.51704407 123.14717102 Z M-62.47537231 137.46577454 C-64.15903781 140.27537683 -63.90311818 143.30272336 -63.88920593 146.48310852 C-63.90004211 147.19947479 -63.9108783 147.91584106 -63.92204285 148.65391541 C-63.95630436 150.94342563 -63.9718921 153.2324382 -63.98295593 155.52217102 C-63.99755928 158.53045992 -64.03132688 161.53764375 -64.07670593 164.54560852 C-64.07368469 165.23222565 -64.07066345 165.91884277 -64.06755066 166.62626648 C-64.13557596 171.00353167 -64.75437817 173.70782099 -67.48295593 177.14717102 C-69.35398115 178.63594561 -71.23223427 180.11566038 -73.11576843 181.58857727 C-77.76182699 185.79423628 -79.18962634 189.46889207 -79.60813904 195.6907196 C-79.68261004 199.51138206 -79.63246693 203.31066639 -79.47758484 207.12886047 C-79.35720737 210.1031667 -79.31359244 213.07109076 -79.28373718 216.04756165 C-79.24775106 217.94413415 -79.20753839 219.84063223 -79.16264343 221.73701477 C-79.14361969 222.62243454 -79.12459595 223.50785431 -79.10499573 224.42010498 C-78.95233487 227.99055177 -78.8137157 230.51737803 -77.13652039 233.71089172 C-74.51691604 235.98626931 -72.17306526 235.53093773 -68.79545593 235.39717102 C-67.61596375 235.36107727 -66.43647156 235.32498352 -65.22123718 235.28779602 C-64.31760437 235.24138977 -63.41397156 235.19498352 -62.48295593 235.14717102 C-62.0285614 233.58869446 -62.0285614 233.58869446 -61.56498718 231.99873352 C-56.29787395 214.29927756 -48.5769935 198.9853652 -32.11576843 189.13154602 C-15.43350997 180.17234222 2.58988086 177.7172854 20.89985657 183.15107727 C37.72712451 189.17786473 50.85065473 199.87071615 58.65620422 216.12910461 C61.27116782 222.25936243 62.82982293 228.71464045 64.51704407 235.14717102 C73.75704407 235.14717102 82.99704407 235.14717102 92.51704407 235.14717102 C93.21829407 232.56904602 93.91954407 229.99092102 94.64204407 227.33467102 C98.16627114 215.11967674 103.50378121 206.1923958 112.51704407 197.14717102 C113.05845032 196.58256165 113.59985657 196.01795227 114.15766907 195.43623352 C125.50075802 184.60873952 142.27562671 180.16321462 157.51704407 180.14717102 C175.29814626 181.15955262 191.13767869 187.67089662 203.45454407 200.71357727 C212.07768825 210.88823414 215.96670459 222.48804203 219.51704407 235.14717102 C221.78684072 235.25511379 224.05809603 235.33273278 226.32954407 235.39717102 C227.59411438 235.44357727 228.85868469 235.48998352 230.16157532 235.53779602 C233.51065064 235.49924161 233.51065064 235.49924161 235.193573 233.47398376 C236.80065179 230.64855637 236.95147155 228.76938113 237.04804993 225.52754211 C237.08655563 224.39891754 237.12506134 223.27029297 237.16473389 222.10746765 C237.18689468 220.89080414 237.20905548 219.67414063 237.23188782 218.42060852 C237.25610306 217.16261444 237.2803183 215.90462036 237.30526733 214.60850525 C237.34676995 211.94348625 237.37981548 209.27957668 237.40254211 206.61445618 C237.42907512 203.89494454 237.49151735 201.18005987 237.58711243 198.46211243 C238.96239839 183.03905807 238.96239839 183.03905807 233.92866516 169.17402649 C231.11897563 166.51918058 228.01548636 164.78888543 224.51704407 163.14717102 C223.09730032 162.27717266 221.67993144 161.40326052 220.26704407 160.52217102 C219.35954407 160.06842102 218.45204407 159.61467102 217.51704407 159.14717102 C216.897005 159.6086554 216.27696594 160.07013977 215.63813782 160.54560852 C209.99808316 164.69970991 204.2832287 168.70075823 198.45454407 172.58467102 C197.79961975 173.02150208 197.14469543 173.45833313 196.46992493 173.90840149 C190.8035736 177.66418776 187.33119723 179.08426169 180.51704407 178.14717102 C173.78628388 174.4383848 169.82265092 166.8971386 166.51704407 160.14717102 C165.54638438 156.27071483 165.92713931 153.43653427 167.61079407 149.75654602 C170.14237044 146.29119148 173.16797925 144.26670492 176.70454407 141.89717102 C178.99389576 140.33635194 181.260965 138.75652729 183.51704407 137.14717102 C183.51704407 136.81717102 183.51704407 136.48717102 183.51704407 136.14717102 C177.11329087 135.89256814 170.71085075 135.71808266 164.30317688 135.59785461 C162.12624859 135.54771734 159.94965455 135.47958472 157.77388 135.39277649 C145.63916256 134.4346033 145.63916256 134.4346033 134.5004425 138.09687805 C132.42188093 140.67583408 130.98639292 143.18499295 129.51704407 146.14717102 C128.40580124 147.69217153 127.26546748 149.21672077 126.09516907 150.71748352 C124.98420063 152.23454708 123.87485487 153.75280012 122.76704407 155.27217102 C121.55372828 156.92207674 120.34018235 158.57181323 119.12641907 160.22138977 C116.79081926 163.40248672 114.46988994 166.59358612 112.15766907 169.79170227 C111.11107427 171.2228968 110.06421258 172.65389621 109.01704407 174.08467102 C108.54943665 174.74032043 108.08182922 175.39596985 107.60005188 176.07148743 C107.1498468 176.68298645 106.69964172 177.29448547 106.23579407 177.92451477 C105.66248352 178.71716736 105.66248352 178.71716736 105.07759094 179.52583313 C100.92124303 183.84409135 98.04352801 185.36649966 92.06587219 185.66474915 C89.89350062 185.69105393 87.72076704 185.69427503 85.54829407 185.67842102 C84.39462341 185.68224792 83.24095276 185.68607483 82.05232239 185.6900177 C79.61819077 185.69273427 77.18402983 185.68539107 74.74995422 185.6686554 C71.02972669 185.64724401 67.31143046 185.66846772 63.59126282 185.69404602 C61.22276898 185.6914027 58.85427635 185.68627764 56.48579407 185.67842102 C55.3762738 185.68651794 54.26675354 185.69461487 53.12361145 185.70295715 C47.16245876 185.63077483 43.02926661 185.47876016 38.51704407 181.14717102 C35.65282603 176.79099181 35.14910017 173.36703445 35.14595032 168.20967102 C35.12854797 166.90256165 35.11114563 165.59545227 35.09321594 164.24873352 C35.08314848 162.1949721 35.07954887 160.1413858 35.08125305 158.08760071 C35.07766432 156.0865264 35.04956241 154.08554398 35.02095032 152.08467102 C35.01909729 150.89744446 35.01724426 149.7102179 35.01533508 148.48701477 C34.30917666 143.75391961 32.21036491 140.87590077 28.90293884 137.49931335 C25.41570739 135.52301779 22.02615052 135.72916037 18.1242218 135.75898743 C17.27989594 135.75373047 16.43557007 135.74847351 15.56565857 135.74305725 C12.7771297 135.72986224 9.98917241 135.73859273 7.20063782 135.74873352 C5.26297903 135.74671283 3.32532098 135.74380143 1.38766479 135.74003601 C-2.67174017 135.7356135 -6.73094704 135.74204213 -10.79032898 135.75605774 C-15.99825818 135.77316096 -21.20572396 135.76330075 -26.41363621 135.74534035 C-30.41387436 135.73451031 -34.41400226 135.73794507 -38.4142437 135.74572372 C-40.33482353 135.7477273 -42.25541332 135.74526095 -44.17598152 135.73828506 C-46.85743439 135.73068217 -49.53813174 135.74225774 -52.2195282 135.75898743 C-53.01597244 135.75291473 -53.81241669 135.74684204 -54.63299561 135.74058533 C-58.78313363 135.76876482 -58.78313363 135.76876482 -62.47537231 137.46577454 Z M197.51704407 143.14717102 C191.11235327 147.38541468 184.72875201 151.62956524 178.51704407 156.14717102 C180.49704407 159.11717102 182.47704407 162.08717102 184.51704407 165.14717102 C188.26514005 164.21014703 189.98136631 163.35105487 193.06391907 161.20576477 C193.908255 160.62246399 194.75259094 160.03916321 195.62251282 159.43818665 C196.49520813 158.82652649 197.36790344 158.21486633 198.26704407 157.58467102 C199.15520813 156.96914368 200.04337219 156.35361633 200.95845032 155.71943665 C203.14838767 154.20060913 205.33435356 152.67638606 207.51704407 151.14717102 C204.40687952 147.85928278 201.50085482 145.30981114 197.51704407 143.14717102 Z M-31.39311218 204.21357727 C-41.53324161 213.59556618 -49.00455849 225.08238316 -49.81889343 239.19013977 C-50.16319092 254.94504226 -46.15421756 268.11163689 -35.23295593 279.89717102 C-24.29819751 290.03004716 -11.59709298 294.81603497 3.20552063 294.61787415 C17.44849203 294.01343202 29.91945872 287.79068052 39.66938782 277.44013977 C49.44730203 265.30560353 53.68357015 251.42706536 52.07954407 235.95967102 C49.86837467 223.29845449 42.82934917 210.6711898 32.39204407 203.08467102 C12.66553514 189.34703564 -12.29690622 188.1561889 -31.39311218 204.21357727 Z M119.51704407 207.14717102 C109.12737551 219.20895622 103.91141889 232.47446421 104.67329407 248.41670227 C106.67745315 263.12029243 113.83612151 274.75262375 124.99360657 284.29170227 C137.07778256 293.17712579 149.89945548 295.47173119 164.51704407 294.14717102 C177.90477269 291.72490593 189.19022989 284.50232689 197.35688782 273.71748352 C206.18117682 260.84484206 208.65597872 246.76576282 205.85688782 231.56123352 C202.23015194 218.34170274 194.2887411 207.24727072 182.70454407 199.89717102 C161.47546579 188.02053729 137.46837479 190.60972851 119.51704407 207.14717102 Z M313.34126282 200.79560852 C309.50521513 204.60405875 309.26006896 208.67636151 309.14204407 213.89717102 C309.15312129 217.65604254 309.32682255 221.39380683 309.51704407 225.14717102 C309.55659324 227.05331137 309.59049519 228.95957768 309.61860657 230.86592102 C309.85905554 240.81947054 310.11252949 249.84013359 315.64204407 258.45967102 C320.19659914 262.71718989 324.86003945 264.76759893 331.01704407 265.64717102 C339.67947115 264.40968144 347.47623253 259.05677459 354.95454407 254.77217102 C355.92714172 254.22045227 356.89973938 253.66873352 357.90180969 253.10029602 C364.16117989 249.53784885 370.35817114 245.88048645 376.51704407 242.14717102 C375.23399954 239.30508043 373.93586085 237.33974073 371.64595032 235.22920227 C371.07747375 234.70197571 370.50899719 234.17474915 369.92329407 233.63154602 C369.31485657 233.07982727 368.70641907 232.52810852 368.07954407 231.95967102 C367.4491925 231.38088196 366.81884094 230.8020929 366.16938782 230.20576477 C361.70423769 226.13832032 357.08754542 222.30479544 352.37251282 218.52998352 C348.91167742 215.6420087 345.61948412 212.60185503 342.32954407 209.52217102 C341.43356506 208.68444153 341.43356506 208.68444153 340.51948547 207.82978821 C339.37112912 206.75517951 338.22300729 205.68032011 337.07514954 204.60517883 C335.02658916 202.6882245 332.97224181 200.77980808 330.89204407 198.89717102 C330.32227844 198.37638977 329.75251282 197.85560852 329.16548157 197.31904602 C323.42725106 193.23973523 318.19158649 196.95930434 313.34126282 200.79560852 Z " fill="#000000" transform="translate(105.48295593261719,102.85282897949219)"/>
<path d="M0 0 C5.99274833 4.32809601 9.25183363 9.86165398 11 17 C11.96426566 24.86753121 11.06836516 31.57603436 6.5234375 38.12890625 C1.78130438 44.00785211 -3.58660949 47.46866258 -11 49 C-19.45850021 49.84099811 -26.65655894 48.21120775 -33.3125 42.8125 C-38.46201535 37.97072461 -41.50153376 32.0134201 -42.203125 24.95703125 C-42.38240458 16.75499065 -40.64931977 10.62067552 -35.4375 4.1875 C-25.8190239 -5.85222323 -11.85833908 -6.81955678 0 0 Z M-26.8125 14.75 C-28.55937071 18.05986028 -29.1142614 21.30078709 -29 25 C-27.37970278 29.68085865 -25.25123377 32.44925974 -21 35 C-16.84481553 36.25342342 -13.86881346 36.30074312 -9.75 34.875 C-6.21828601 32.46701319 -3.91018735 29.8203747 -2 26 C-1.61989511 20.9636102 -1.93399333 18.05150881 -5 14 C-8.27576213 10.31476761 -10.33024034 9.1575245 -15.3125 8.6875 C-20.45124983 9.12298727 -23.17324325 11.23623487 -26.8125 14.75 Z " fill="#000000" transform="translate(122,324)"/>
<path d="M0 0 C6.4257708 4.0174567 10.97796336 9.87607035 12.921875 17.20703125 C14.60074945 26.5793886 12.35917152 33.85733938 7.13671875 41.765625 C0.66372205 47.95093296 -6.36536815 50.83074359 -15.25 50.65625 C-23.8658937 49.9347903 -30.10808534 46.00073539 -35.67578125 39.453125 C-39.7055197 32.91021634 -40.72299154 26.01031268 -39.67578125 18.453125 C-37.66534801 10.31622358 -33.66026117 4.68345141 -26.64453125 0.13671875 C-18.22880905 -4.23884696 -8.54583362 -3.90823953 0 0 Z M-25.67578125 17.453125 C-26.88221691 21.07243198 -26.99846684 23.64543505 -26.67578125 27.453125 C-24.61885022 31.27313978 -22.55239821 34.40713272 -18.67578125 36.453125 C-14.14576852 37.4760311 -11.81058365 37.84594121 -7.42578125 36.328125 C-3.8736769 33.90623567 -1.38111889 31.79136759 -0.10546875 27.5625 C0.76822445 22.69212512 0.17877244 19.63980375 -2.67578125 15.453125 C-6.12390575 12.34140289 -8.32492309 10.55507656 -12.98828125 10.203125 C-18.72244118 10.59188161 -21.95884561 13.20519856 -25.67578125 17.453125 Z " fill="#000000" transform="translate(274.67578125,322.546875)"/>
<path d="M0 0 C1.97226563 -0.00580078 1.97226563 -0.00580078 3.984375 -0.01171875 C4.66435547 -0.00543457 5.34433594 0.00084961 6.04492188 0.00732422 C8.11915892 0.02339225 10.19144796 0.00745018 12.265625 -0.01171875 C13.58046875 -0.00785156 14.8953125 -0.00398437 16.25 0 C18.04824219 0.00507568 18.04824219 0.00507568 19.8828125 0.01025391 C23.43244511 0.43524757 25.34911006 1.16108569 28.125 3.3984375 C28.6037279 6.74953277 28.9024448 9.13077311 27.08618164 12.09228516 C24.0204639 14.13406157 20.80721416 13.82594852 17.24609375 13.796875 C16.09428368 13.80118027 16.09428368 13.80118027 14.91920471 13.80557251 C13.29777284 13.80761227 11.67631632 13.8020885 10.05493164 13.78955078 C7.56796554 13.77347283 5.08261913 13.78941255 2.59570312 13.80859375 C1.02082974 13.80661173 -0.55404264 13.80276891 -2.12890625 13.796875 C-3.24767906 13.80598404 -3.24767906 13.80598404 -4.38905334 13.8152771 C-6.48266602 13.78662109 -6.48266602 13.78662109 -9.875 13.3984375 C-12.35166082 9.68344628 -12.42386514 7.78935862 -11.875 3.3984375 C-8.02301561 0.28797804 -4.85498479 0.01370359 0 0 Z " fill="#000000" transform="translate(67.875,252.6015625)"/>
</svg>
