<?xml version="1.0" standalone="no"?>
<!DOCTYPE svg PUBLIC "-//W3C//DTD SVG 20010904//EN"
 "http://www.w3.org/TR/2001/REC-SVG-20010904/DTD/svg10.dtd">
<svg version="1.0" xmlns="http://www.w3.org/2000/svg"
 width="512.000000pt" height="512.000000pt" viewBox="0 0 512.000000 512.000000"
 preserveAspectRatio="xMidYMid meet">

<g transform="translate(0.000000,512.000000) scale(0.100000,-0.100000)"
fill="#000000" stroke="none">
<path d="M1772 5060 c-40 -11 -101 -34 -135 -52 -81 -42 -203 -164 -245 -245
-39 -75 -72 -197 -72 -269 l0 -53 -285 -3 -285 -3 -32 -33 -33 -32 -3 -803 -2
-802 -158 -158 -157 -157 0 -610 0 -610 33 -32 32 -33 285 -3 285 -3 0 -119 0
-120 -280 0 c-169 0 -300 -4 -332 -11 -223 -48 -379 -274 -341 -494 31 -181
153 -314 330 -360 86 -23 2680 -23 2766 0 177 46 299 179 330 360 29 172 -70
372 -223 450 -98 50 -142 55 -447 55 l-283 0 0 120 0 119 285 3 285 3 32 33
33 32 3 793 c2 499 -1 851 -8 952 -20 293 -67 559 -140 788 l-38 117 614 0
614 0 0 -1219 0 -1219 -221 -580 -221 -580 -64 -4 c-57 -3 -69 -8 -97 -36 -27
-28 -32 -39 -32 -82 0 -43 5 -54 33 -82 l32 -33 408 0 c457 0 465 1 617 75
195 96 344 278 402 490 24 89 24 281 0 370 -20 75 -77 201 -112 246 l-23 31
79 1524 c44 838 77 1551 74 1584 -15 171 -183 347 -368 384 -29 6 -378 49
-777 96 -399 46 -1014 118 -1367 160 -353 41 -659 75 -680 74 -21 0 -71 -9
-111 -19z m1508 -380 c876 -103 1381 -166 1409 -177 57 -21 127 -85 142 -130
25 -78 -13 -178 -88 -224 l-38 -24 -925 -2 -925 -2 -50 71 c-68 96 -145 164
-235 207 l-75 36 -469 3 -469 3 5 63 c6 70 42 159 84 209 58 69 166 126 239
127 17 0 644 -72 1395 -160z m-1960 -1483 c0 -1087 -1 -1056 55 -1167 32 -63
112 -143 175 -175 107 -54 115 -55 767 -55 l603 0 0 -200 0 -200 -1160 0
-1160 0 0 477 0 478 157 158 158 157 3 765 2 765 200 0 200 0 0 -1003z m1144
989 c153 -64 309 -377 390 -781 51 -257 58 -346 63 -873 l5 -493 -614 3 -614
3 -41 27 c-22 15 -51 44 -64 65 l-24 38 -3 1013 -2 1012 435 0 c351 0 442 -3
469 -14z m2291 -1496 c-35 -674 -64 -1226 -64 -1228 -1 -1 -18 6 -38 16 -46
23 -114 48 -170 62 l-43 11 0 1163 0 1164 148 4 c97 3 160 10 187 20 22 9 41
15 42 14 1 -1 -27 -553 -62 -1226z m-205 -1427 c172 -84 290 -271 290 -463 0
-235 -172 -451 -401 -505 -90 -21 -422 -22 -417 -1 2 8 89 240 193 516 l190
501 35 -6 c19 -3 69 -22 110 -42z m-2270 -223 l0 -120 -520 0 -520 0 0 120 0
120 520 0 520 0 0 -120z m863 -389 c21 -13 50 -42 65 -64 23 -34 27 -52 27
-107 0 -55 -4 -73 -27 -107 -15 -22 -44 -51 -65 -64 l-38 -24 -1345 0 -1345 0
-38 24 c-76 47 -111 140 -88 229 14 52 76 117 123 131 20 6 542 9 1363 8
l1330 -2 38 -24z"/>
</g>
</svg>
