<?xml version="1.0" standalone="no"?>
<!DOCTYPE svg PUBLIC "-//W3C//DTD SVG 20010904//EN"
 "http://www.w3.org/TR/2001/REC-SVG-20010904/DTD/svg10.dtd">
<svg version="1.0" xmlns="http://www.w3.org/2000/svg"
 width="512.000000pt" height="512.000000pt" viewBox="0 0 512.000000 512.000000"
 preserveAspectRatio="xMidYMid meet">

<g transform="translate(0.000000,512.000000) scale(0.100000,-0.100000)"
fill="#000000" stroke="none">
<path d="M561 4422 c-19 -10 -43 -34 -53 -53 -17 -32 -18 -75 -18 -741 l0
-708 -55 0 c-95 0 -169 -45 -206 -125 -14 -31 -19 -64 -19 -146 0 -98 2 -107
23 -127 33 -31 80 -29 106 4 18 23 21 41 21 119 0 122 3 125 137 125 91 0 101
2 121 23 l22 23 0 737 0 737 793 0 c603 0 796 -3 805 -12 7 -7 12 -42 12 -85
l0 -73 -675 0 c-742 0 -718 2 -750 -60 -13 -25 -15 -113 -15 -635 l0 -606 25
-24 c24 -25 25 -25 227 -25 286 -1 273 7 388 -224 94 -189 62 -176 439 -176
286 0 308 1 338 20 55 33 63 61 63 230 l0 150 301 0 c335 0 354 -3 382 -63 13
-29 75 -593 65 -602 -1 -2 -35 7 -74 21 -39 13 -102 28 -140 34 -47 7 -412 10
-1139 7 -1189 -3 -1106 2 -1258 -71 l-67 -32 0 87 c0 48 -3 95 -6 104 -10 24
-60 46 -89 39 -48 -12 -55 -36 -55 -197 l0 -148 -52 -67 c-351 -457 -78 -1117
493 -1192 58 -8 410 -10 1134 -8 1175 4 1099 0 1260 78 147 71 263 188 341
343 37 72 74 208 74 270 l0 37 108 0 108 0 0 -97 c-1 -132 25 -213 105 -332
105 -155 194 -228 339 -277 51 -17 92 -19 508 -19 l454 0 19 24 c25 30 24 62
-1 94 -19 24 -29 26 -97 29 l-77 3 -283 609 -283 609 0 116 c0 196 -16 221
-139 221 -93 0 -136 -13 -197 -59 -75 -56 -105 -125 -112 -248 -2 -54 -11
-110 -19 -125 l-14 -28 -307 0 -308 0 -31 33 -31 32 -35 367 c-34 358 -35 369
-64 420 -32 58 -99 110 -161 128 -22 6 -166 10 -344 10 l-308 0 0 146 c0 83
-5 154 -11 165 -25 48 -105 44 -128 -7 -7 -17 -11 -133 -11 -364 l0 -340 -255
0 -255 0 -65 130 c-75 150 -115 199 -193 237 -55 27 -64 28 -234 31 l-178 4 0
524 0 525 473 -3 472 -3 52 -27 c64 -34 117 -88 151 -153 21 -42 26 -68 31
-161 5 -91 10 -116 25 -133 26 -29 79 -28 107 2 19 21 21 30 16 142 -5 135
-23 198 -82 281 l-35 49 57 6 c71 7 114 28 145 71 20 28 23 47 27 140 3 95 1
112 -19 153 -14 29 -38 57 -63 73 l-41 27 -840 3 c-801 2 -843 1 -875 -16z
m3649 -2292 l0 -110 271 -582 c149 -321 273 -589 276 -595 6 -16 -476 -18
-556 -3 -111 21 -193 79 -277 198 -77 107 -98 164 -98 262 1 85 1 85 117 375
115 285 117 291 117 369 0 122 46 195 123 196 l27 0 0 -110z m-1292 -147 c195
-75 328 -224 378 -423 22 -86 14 -240 -16 -327 -62 -178 -215 -321 -405 -380
-57 -17 -120 -18 -1145 -18 l-1085 0 -70 22 c-234 74 -403 284 -422 524 -8
102 10 197 56 294 61 129 147 217 276 281 132 65 88 63 1275 61 l1075 -2 83
-32z m898 -220 c-4 -10 -23 -60 -43 -110 l-36 -93 -143 0 -144 0 -6 28 c-12
54 -27 98 -51 145 l-23 47 226 0 c211 0 226 -1 220 -17z"/>
<path d="M660 1731 c-98 -30 -186 -115 -215 -206 -49 -156 25 -320 174 -388
65 -30 187 -30 253 0 60 27 127 94 158 158 33 68 34 188 3 257 -31 69 -107
141 -176 167 -59 21 -147 27 -197 12z m165 -164 c45 -25 85 -92 85 -143 0 -51
-40 -115 -91 -142 -112 -60 -239 18 -239 148 0 124 134 199 245 137z"/>
<path d="M1630 1724 c-128 -46 -210 -162 -210 -298 0 -87 23 -147 81 -210 67
-74 130 -100 234 -101 68 0 88 5 132 28 193 101 237 336 94 500 -71 81 -226
119 -331 81z m182 -156 c100 -56 114 -184 29 -261 -64 -57 -150 -62 -211 -10
-42 35 -60 73 -60 128 0 128 131 205 242 143z"/>
<path d="M2624 1726 c-131 -41 -217 -162 -217 -303 1 -122 64 -222 178 -281
42 -22 63 -26 135 -26 72 0 93 4 136 26 66 35 138 115 159 178 32 95 18 201
-35 281 -74 113 -226 166 -356 125z m153 -147 c62 -23 105 -86 105 -154 0
-145 -171 -218 -273 -116 -46 46 -63 100 -48 156 25 95 126 148 216 114z"/>
<path d="M896 2599 c-33 -26 -36 -79 -6 -109 18 -18 33 -20 133 -20 106 0 115
2 135 23 29 31 28 72 -3 102 -22 23 -31 25 -128 25 -90 0 -108 -3 -131 -21z"/>
</g>
</svg>
