<?xml version="1.0" standalone="no"?>
<!DOCTYPE svg PUBLIC "-//W3C//DTD SVG 20010904//EN"
 "http://www.w3.org/TR/2001/REC-SVG-20010904/DTD/svg10.dtd">
<svg version="1.0" xmlns="http://www.w3.org/2000/svg"
 width="512.000000pt" height="512.000000pt" viewBox="0 0 512.000000 512.000000"
 preserveAspectRatio="xMidYMid meet">

<g transform="translate(0.000000,512.000000) scale(0.100000,-0.100000)"
fill="#000000" stroke="none">
<path d="M4525 4883 c-11 -2 -141 -75 -290 -161 -243 -141 -272 -161 -292
-198 -21 -38 -63 -64 -608 -379 l-586 -338 -23 22 c-12 11 -32 21 -44 21 -12
0 -439 -241 -948 -535 l-927 -535 -126 0 c-94 0 -132 -4 -147 -14 -18 -14 -19
-31 -22 -325 l-3 -311 -83 0 c-120 0 -116 8 -116 -233 0 -240 -9 -227 157
-227 l113 0 0 -75 0 -75 -129 0 c-91 0 -132 -4 -139 -13 -15 -19 -312 -748
-312 -767 0 -9 8 -24 18 -33 15 -14 50 -17 217 -19 l199 -3 11 -53 c18 -76 69
-172 126 -231 l49 -51 -214 0 c-194 0 -214 -2 -229 -18 -24 -26 -21 -68 5 -86
20 -14 262 -16 2378 -16 2592 0 2400 -5 2400 59 0 50 -25 61 -141 61 l-105 0
47 51 c59 64 105 148 122 225 l14 59 93 3 c70 2 99 7 112 19 17 15 18 52 18
587 l0 571 -227 378 c-163 272 -234 382 -251 388 -34 13 -1064 12 -1099 -2
-15 -5 -31 -16 -35 -22 -4 -7 -8 -94 -8 -194 l0 -183 -168 0 c-150 0 -171 -2
-185 -18 -15 -16 -17 -59 -19 -353 l-3 -334 -990 0 -990 0 -3 73 -3 72 123 0
c179 0 168 -15 168 229 0 179 -2 199 -18 214 -15 14 -42 17 -158 17 l-140 0
-16 44 -17 45 36 21 c19 11 438 253 932 537 493 284 906 525 919 536 23 21 28
52 13 77 -8 11 1 20 37 41 26 15 290 167 587 339 503 291 543 312 591 314 45
1 73 14 259 121 115 66 213 122 217 123 5 2 7 -106 6 -240 l-3 -243 -65 -5
c-138 -11 -142 -21 -138 -340 l3 -250 32 -32 c30 -29 40 -33 103 -36 l70 -4 0
-133 c0 -74 -4 -145 -10 -160 -20 -53 -104 -51 -116 4 -10 45 -12 49 -39 67
-25 16 -27 16 -53 -3 -32 -24 -38 -50 -22 -98 26 -79 91 -125 175 -125 53 0
88 16 127 57 42 44 48 74 48 239 l0 154 58 0 c69 0 99 14 130 60 23 34 23 37
20 283 l-3 249 -37 34 c-35 31 -43 34 -103 34 l-65 0 0 279 c0 256 1 280 19
302 27 35 44 96 37 133 -6 33 -123 245 -154 280 -36 41 -108 62 -167 49z m78
-127 c8 -8 40 -60 71 -116 41 -71 56 -108 52 -124 -8 -32 -506 -321 -540 -312
-18 4 -40 34 -85 114 -62 110 -71 141 -48 160 31 26 504 292 519 292 9 0 23
-6 31 -14z m-607 -498 c29 -51 50 -95 46 -99 -9 -8 -1121 -649 -1126 -649 -8
0 -107 182 -104 191 4 10 1121 658 1127 653 2 -2 28 -45 57 -96z m884 -748 l0
-210 -145 0 -145 0 0 210 0 210 145 0 145 0 0 -210z m-2126 34 c53 -92 95
-168 94 -169 -7 -6 -1797 -1037 -1803 -1039 -10 -2 -146 357 -137 365 4 3 259
152 567 329 308 178 697 403 865 501 168 97 308 177 312 178 3 1 49 -74 102
-165z m-1884 -1105 c47 -121 93 -240 102 -264 l18 -45 -180 0 -180 0 0 265 0
265 78 0 77 0 85 -221z m3926 -262 l204 -337 0 -515 0 -515 -49 0 -48 0 -11
56 c-38 185 -195 349 -383 399 -71 19 -190 19 -264 0 -182 -48 -335 -201 -376
-380 -6 -27 -13 -56 -15 -62 -2 -10 -35 -13 -119 -13 l-115 0 0 855 0 855 486
-2 486 -3 204 -338z m-1296 -357 l0 -290 -125 0 -125 0 0 290 0 290 125 0 125
0 0 -290z m-2180 80 l0 -110 -450 0 -450 0 0 110 0 110 450 0 450 0 0 -110z
m-290 -300 l0 -70 -165 0 -165 0 0 70 0 70 165 0 165 0 0 -70z m2468 -492 l2
-298 -420 0 -420 0 -6 28 c-29 132 -80 228 -163 304 -216 197 -551 182 -747
-35 -54 -60 -108 -166 -124 -243 l-11 -54 -65 0 c-61 0 -64 1 -70 28 -19 83
-29 113 -57 167 -62 117 -191 219 -326 259 -68 20 -198 21 -270 1 -186 -49
-341 -211 -382 -397 l-12 -58 -139 0 c-78 0 -138 4 -136 9 2 5 57 140 123 300
l120 291 1550 -2 1550 -3 3 -297z m-2375 15 c75 -36 154 -108 186 -172 50 -98
62 -220 31 -323 -20 -69 -90 -160 -158 -205 -82 -55 -127 -68 -237 -68 -80 0
-97 4 -158 32 -189 89 -279 292 -218 490 37 120 138 224 256 263 92 31 210 24
298 -17z m1190 -6 c306 -151 299 -583 -11 -730 -61 -29 -75 -32 -167 -32 -91
0 -106 3 -165 31 -95 46 -153 101 -197 192 -36 73 -38 80 -38 177 0 91 3 106
31 165 76 162 210 244 386 237 76 -3 95 -8 161 -40z m2188 23 c121 -37 223
-141 260 -263 30 -96 24 -212 -15 -290 -90 -184 -293 -276 -483 -219 -132 40
-233 140 -274 271 -23 76 -24 137 -4 216 60 229 290 356 516 285z m-2887 -462
c2 -7 12 -42 22 -77 20 -72 72 -157 129 -213 l38 -38 -257 0 -258 0 53 58 c58
63 115 172 125 238 l6 44 69 0 c47 0 71 -4 73 -12z m2254 -40 c18 -79 67 -171
124 -233 l50 -55 -787 0 -788 0 52 55 c57 60 117 174 127 241 l6 44 602 0 601
0 13 -52z"/>
<path d="M3832 2314 l-22 -15 0 -413 c0 -387 1 -414 18 -429 17 -15 65 -17
484 -17 438 0 466 1 481 18 14 16 17 43 17 171 l0 153 -155 259 c-86 142 -166
265 -178 274 -33 23 -612 22 -645 -1z m722 -332 l136 -228 0 -97 0 -97 -385 0
-385 0 0 325 0 325 249 0 248 0 137 -228z"/>
<path d="M3743 1324 c-15 -24 -15 -29 -2 -53 14 -25 19 -26 110 -29 105 -3
122 4 122 53 0 47 -17 55 -119 55 -90 0 -94 -1 -111 -26z"/>
<path d="M873 1026 c-62 -20 -108 -52 -143 -99 -83 -113 -77 -253 15 -355 172
-192 488 -74 488 183 0 189 -183 326 -360 271z m153 -122 c64 -30 103 -108 90
-179 -9 -48 -68 -112 -116 -126 -157 -47 -278 149 -167 270 46 50 129 65 193
35z"/>
<path d="M2052 1025 c-95 -30 -169 -108 -192 -206 -42 -172 95 -341 275 -341
113 0 210 63 256 167 97 216 -113 451 -339 380z m181 -138 c97 -74 81 -224
-29 -278 -153 -74 -302 111 -199 247 36 47 77 65 142 61 37 -3 61 -11 86 -30z"/>
<path d="M4289 1024 c-61 -18 -136 -86 -165 -149 -34 -72 -33 -172 2 -243 89
-178 325 -209 459 -60 138 153 70 394 -127 453 -63 18 -108 18 -169 -1z m178
-130 c114 -85 88 -255 -44 -294 -62 -19 -110 -6 -159 44 -57 56 -67 114 -33
183 33 65 85 95 157 90 32 -2 63 -11 79 -23z"/>
</g>
</svg>
