<?xml version="1.0" standalone="no"?>
<!DOCTYPE svg PUBLIC "-//W3C//DTD SVG 20010904//EN"
 "http://www.w3.org/TR/2001/REC-SVG-20010904/DTD/svg10.dtd">
<svg version="1.0" xmlns="http://www.w3.org/2000/svg"
 width="225.000000pt" height="225.000000pt" viewBox="0 0 225.000000 225.000000"
 preserveAspectRatio="xMidYMid meet">

<g transform="translate(0.000000,225.000000) scale(0.100000,-0.100000)"
fill="#000000" stroke="none">
<path d="M217 1373 c-71 -145 -117 -250 -117 -268 0 -72 61 -125 143 -125 44
0 53 4 83 35 34 36 54 87 54 137 l0 27 -42 -19 c-66 -29 -138 -44 -149 -33 -7
7 22 56 91 152 l101 141 62 -82 c34 -46 89 -111 122 -144 l61 -62 -19 -67
c-10 -37 -16 -69 -13 -73 3 -3 22 11 41 31 20 21 55 47 78 59 46 23 151 35
211 24 79 -15 143 -112 166 -254 l12 -73 121 3 c119 3 122 4 125 26 2 13 14
27 27 32 13 5 30 19 38 31 45 63 134 78 200 34 39 -27 43 -25 49 25 3 23 8 20
76 -44 61 -58 72 -73 72 -101 0 -25 8 -40 36 -65 20 -17 48 -36 61 -41 40 -15
148 -28 190 -22 l39 5 -66 67 c-36 36 -83 92 -103 124 -21 31 -41 57 -45 57
-4 0 -24 -14 -44 -30 l-37 -30 -46 72 c-58 90 -91 126 -132 143 -17 7 -34 22
-38 34 -7 24 -15 27 -175 61 l-125 26 -12 129 c-14 141 -17 155 -34 155 -12 0
-10 -48 8 -214 l6 -59 -38 6 c-21 3 -42 10 -47 15 -5 5 -18 46 -29 92 -17 74
-18 85 -4 100 38 42 7 85 -75 100 -59 11 -286 13 -367 4 -57 -7 -66 -22 -39
-59 11 -16 11 -27 -2 -74 -8 -31 -18 -59 -22 -63 -3 -5 -60 45 -127 110 -92
89 -122 125 -127 150 -5 29 -8 32 -44 32 l-38 0 -117 -237z m684 87 l29 0 0
-150 0 -150 -80 0 -80 0 1 48 c0 26 6 92 12 147 11 93 14 100 37 106 14 4 31
5 38 3 8 -2 27 -4 43 -4z m177 -6 c24 -5 34 -14 41 -38 11 -33 61 -322 61
-350 0 -13 -12 -16 -69 -16 -68 0 -70 0 -91 35 -12 19 -32 43 -46 54 -24 18
-24 22 -24 170 l0 151 49 0 c27 0 62 -3 79 -6z m117 -455 c8 -47 -2 -59 -51
-59 -39 0 -59 16 -78 63 l-15 37 69 0 68 0 7 -41z"/>
<path d="M757 1066 c-145 -54 -193 -232 -94 -352 40 -49 98 -74 170 -74 68 0
120 23 164 74 64 72 71 191 17 269 -55 78 -170 115 -257 83z m160 -130 c70
-76 21 -196 -80 -196 -53 0 -96 25 -113 65 -18 44 -18 69 1 106 40 77 134 89
192 25z"/>
<path d="M1484 890 c-11 -4 -33 -22 -47 -40 -70 -82 -11 -210 97 -210 100 0
159 91 118 183 -28 64 -103 94 -168 67z m116 -80 c26 -49 -11 -120 -63 -120
-81 0 -108 114 -34 145 36 15 82 3 97 -25z"/>
</g>
</svg>
