<?xml version="1.0" standalone="no"?>
<!DOCTYPE svg PUBLIC "-//W3C//DTD SVG 20010904//EN"
 "http://www.w3.org/TR/2001/REC-SVG-20010904/DTD/svg10.dtd">
<svg version="1.0" xmlns="http://www.w3.org/2000/svg"
 width="512.000000pt" height="512.000000pt" viewBox="0 0 512.000000 512.000000"
 preserveAspectRatio="xMidYMid meet">

<g transform="translate(0.000000,512.000000) scale(0.100000,-0.100000)"
fill="#000000" stroke="none">
<path d="M4129 4947 c-105 -30 -204 -117 -236 -208 -10 -27 -22 -50 -28 -53
-695 -282 -1521 -624 -1555 -643 -109 -63 -202 -165 -270 -297 -20 -39 -68
-160 -106 -268 l-69 -198 -35 0 c-19 0 -58 -11 -86 -24 -93 -43 -114 -90 -210
-469 l-77 -307 -545 0 c-398 0 -556 -3 -586 -12 -55 -16 -138 -99 -154 -154
-17 -58 -17 -650 0 -708 16 -55 99 -138 154 -154 24 -7 100 -12 178 -12 l136
0 0 -85 c0 -75 -2 -85 -18 -85 -36 0 -143 -43 -202 -81 -87 -56 -155 -132
-201 -224 -150 -303 5 -667 330 -778 l66 -22 1315 -3 c1460 -3 1390 -6 1528
63 121 61 227 186 274 323 30 88 32 249 4 332 -83 246 -295 400 -553 400 l-63
0 0 78 0 77 52 13 c58 13 101 40 137 84 47 58 50 83 51 413 l0 310 -175 438
c-97 241 -186 455 -199 476 -31 48 -76 86 -120 101 l-34 11 35 104 c38 116 73
170 135 215 23 17 214 140 425 272 403 255 415 265 394 321 -13 33 -54 61 -84
55 -12 -2 -202 -118 -422 -256 -514 -324 -528 -338 -615 -597 l-37 -110 -315
-3 -316 -2 63 172 c34 95 70 189 80 208 56 109 148 210 225 250 48 24 1456
600 1468 600 6 0 14 -12 20 -27 19 -55 651 -1798 657 -1813 4 -11 -114 -176
-350 -490 -382 -509 -380 -506 -330 -556 l26 -26 312 4 c294 4 316 6 374 27
165 60 296 191 353 354 18 50 23 92 27 214 l5 152 -25 25 c-31 31 -75 34 -108
7 -23 -18 -24 -27 -29 -169 -6 -148 -6 -151 -43 -225 -56 -114 -150 -189 -269
-217 -24 -5 -125 -10 -226 -10 l-182 0 300 400 300 400 116 0 c109 0 116 1
139 25 14 13 25 33 25 44 0 50 -392 2098 -409 2135 -51 113 -166 187 -299 193
-43 1 -97 -3 -123 -10z m179 -163 c48 -20 89 -59 102 -98 9 -28 370 -1937 370
-1957 0 -5 -19 -9 -42 -9 l-43 0 -333 923 c-183 507 -335 931 -338 943 -9 37
16 105 54 146 60 63 153 85 230 52z m-1469 -1687 c12 -13 98 -215 191 -448
l170 -424 0 -288 0 -288 -25 -24 -24 -25 -1391 0 -1391 0 -24 25 -25 24 0 311
0 311 25 24 24 25 589 0 c548 0 591 1 611 18 18 14 38 80 102 337 44 176 84
336 90 356 5 20 18 48 30 63 l20 26 503 0 503 0 22 -23z m121 -1737 l0 -80
-215 0 c-216 0 -216 0 -240 -25 -30 -29 -32 -74 -6 -106 l19 -24 389 -5 c432
-6 433 -6 531 -80 108 -82 157 -184 157 -325 0 -80 -4 -97 -32 -157 -44 -93
-100 -151 -191 -196 l-76 -37 -1336 0 -1336 0 -76 38 c-202 99 -284 334 -187
534 47 97 162 187 271 213 26 6 351 10 841 10 l798 0 24 25 c16 15 25 36 25
55 0 19 -9 40 -25 55 l-24 25 -736 0 -735 0 0 80 0 80 1080 0 1080 0 0 -80z"/>
<path d="M4185 4615 c-16 -15 -25 -36 -25 -55 0 -19 9 -40 25 -55 15 -16 36
-25 55 -25 19 0 40 9 55 25 16 15 25 36 25 55 0 19 -9 40 -25 55 -15 16 -36
25 -55 25 -19 0 -40 -9 -55 -25z"/>
<path d="M1951 2943 c-17 -14 -38 -79 -92 -282 -96 -357 -105 -341 191 -341
l190 0 0 -132 0 -132 92 -139 c50 -76 100 -142 109 -148 10 -5 137 -9 284 -9
l266 0 24 25 c25 24 25 26 25 208 l0 184 -139 329 c-76 181 -148 352 -160 380
-14 32 -32 56 -47 63 -17 7 -136 11 -373 11 -317 0 -351 -2 -370 -17z m289
-303 l0 -160 -130 0 c-71 0 -130 3 -130 8 0 4 18 74 40 155 22 81 40 150 40
153 0 2 41 4 90 4 l90 0 0 -160z m503 -168 l137 -327 0 -113 0 -112 -179 0
-178 0 -62 93 -61 93 0 347 0 347 103 0 102 0 138 -328z"/>
<path d="M505 2135 c-24 -23 -25 -28 -25 -175 0 -147 1 -152 25 -175 15 -16
36 -25 55 -25 19 0 40 9 55 25 24 23 25 28 25 175 0 147 -1 152 -25 175 -15
16 -36 25 -55 25 -19 0 -40 -9 -55 -25z"/>
<path d="M825 2135 c-24 -23 -25 -28 -25 -175 0 -147 1 -152 25 -175 15 -16
36 -25 55 -25 19 0 40 9 55 25 24 23 25 28 25 175 0 147 -1 152 -25 175 -15
16 -36 25 -55 25 -19 0 -40 -9 -55 -25z"/>
<path d="M1145 2135 c-24 -23 -25 -28 -25 -173 0 -132 2 -153 19 -173 27 -33
95 -33 122 0 17 20 19 41 19 173 0 145 -1 150 -25 173 -15 16 -36 25 -55 25
-19 0 -40 -9 -55 -25z"/>
<path d="M800 947 c-49 -16 -133 -102 -148 -153 -28 -94 -8 -169 63 -239 101
-102 229 -102 330 0 102 101 102 229 0 330 -70 71 -152 91 -245 62z m135 -172
c16 -15 25 -36 25 -55 0 -19 -9 -40 -25 -55 -15 -16 -36 -25 -55 -25 -19 0
-40 9 -55 25 -16 15 -25 36 -25 55 0 19 9 40 25 55 15 16 36 25 55 25 19 0 40
-9 55 -25z"/>
<path d="M1520 947 c-49 -16 -133 -102 -148 -153 -28 -94 -8 -169 63 -239 94
-94 218 -101 316 -16 112 95 118 243 14 346 -70 71 -152 91 -245 62z m135
-172 c50 -49 15 -135 -55 -135 -19 0 -40 9 -55 25 -16 15 -25 36 -25 55 0 19
9 40 25 55 15 16 36 25 55 25 19 0 40 -9 55 -25z"/>
<path d="M2240 947 c-49 -16 -133 -102 -148 -153 -28 -94 1 -191 77 -255 121
-104 298 -63 367 85 31 66 31 126 0 192 -53 114 -176 169 -296 131z m135 -172
c50 -49 15 -135 -55 -135 -19 0 -40 9 -55 25 -16 15 -25 36 -25 55 0 19 9 40
25 55 15 16 36 25 55 25 19 0 40 -9 55 -25z"/>
<path d="M2960 947 c-49 -16 -133 -102 -148 -153 -28 -94 -8 -169 63 -239 101
-102 229 -102 330 0 52 51 75 102 75 165 0 63 -23 114 -75 165 -70 71 -152 91
-245 62z m135 -172 c50 -49 15 -135 -55 -135 -41 0 -80 39 -80 80 0 41 39 80
80 80 19 0 40 -9 55 -25z"/>
</g>
</svg>
