<?xml version="1.0" encoding="UTF-8"?>
<svg version="1.1" xmlns="http://www.w3.org/2000/svg" width="512" height="512">
<path d="M0 0 C1.23280197 -0.01007584 1.23280197 -0.01007584 2.49050903 -0.02035522 C5.20255621 -0.03932147 7.9143555 -0.04325938 10.62646484 -0.04541016 C12.52110901 -0.05184137 14.41575218 -0.05856997 16.31039429 -0.06558228 C20.28312479 -0.07755329 24.25576836 -0.08126351 28.22851562 -0.08007812 C33.29557469 -0.07987548 38.36206943 -0.10712165 43.42899513 -0.14162254 C47.34461983 -0.1639722 51.26011077 -0.16791313 55.17579269 -0.16685867 C57.04233104 -0.16920466 58.90887364 -0.1779711 60.77534866 -0.19352341 C73.39977205 -0.28882671 84.69525451 0.13138664 94.95068359 8.48399353 C101.06021868 14.74894458 103.95677447 22.97614186 106.39990234 31.19287109 C106.72748535 32.25384506 107.05506836 33.31481903 107.39257812 34.40794373 C108.30977409 37.38365894 109.21537043 40.36267341 110.11871338 43.34261322 C111.17120242 46.79586635 112.24534668 50.24238076 113.31787109 53.68945312 C115.89062082 61.96536957 118.44546773 70.24673171 120.996521 78.52935791 C122.20943083 82.46632529 123.42388341 86.40281674 124.63818359 90.33935547 C126.99771671 97.98929647 129.35561944 105.63973862 131.71240234 113.29052734 C136.50979042 113.50347269 141.30742161 113.69536509 146.10639954 113.86883545 C147.73457167 113.93053066 149.36254662 113.99770753 150.99024963 114.07073975 C162.74149372 114.59302728 171.9638879 113.77909794 182.85302734 109.03759766 C204.05536919 100.51879959 232.11212945 104.05583344 252.79052734 112.56005859 C263.44058776 117.16039626 272.93502542 122.62599642 281.71240234 130.29052734 C282.37240234 130.80744141 283.03240234 131.32435547 283.71240234 131.85693359 C299.89956376 144.87846062 309.90545119 164.75184465 315.71240234 184.29052734 C315.71240234 184.95052734 315.71240234 185.61052734 315.71240234 186.29052734 C316.46263672 186.30470703 317.21287109 186.31888672 317.98583984 186.33349609 C326.31436848 186.72160133 333.53263718 188.07607533 339.59521484 194.18896484 C345.89473708 202.1318407 346.08521113 210.14122122 346.08300781 219.9206543 C346.08737021 222.08706966 346.12371083 224.25142605 346.16162109 226.41748047 C346.23693624 235.66181589 345.47581999 242.96259705 339.21240234 250.16552734 C338.38740234 250.86677734 337.56240234 251.56802734 336.71240234 252.29052734 C336.07302734 252.84740234 335.43365234 253.40427734 334.77490234 253.97802734 C328.47359422 257.98795069 321.56073594 257.71133417 314.33740234 257.91552734 C313.21978516 257.95419922 312.10216797 257.99287109 310.95068359 258.03271484 C308.20475073 258.12659289 305.45881758 258.21227646 302.71240234 258.29052734 C302.41382324 259.06904053 302.11524414 259.84755371 301.80761719 260.6496582 C294.41018261 278.48694082 273.09592636 292.62232265 255.99267578 299.9465332 C226.98818968 311.59120873 194.5305068 311.5142442 165.71240234 299.29052734 C147.58585709 290.84618003 131.31872989 277.35545659 120.71240234 260.29052734 C120.71240234 259.63052734 120.71240234 258.97052734 120.71240234 258.29052734 C119.24781082 258.2850589 119.24781082 258.2850589 117.75363159 258.27947998 C108.54299601 258.24250651 99.33269403 258.18470818 90.12231255 258.1066246 C85.38735461 258.06714917 80.65258266 258.03496103 75.91748047 258.01953125 C71.34608872 258.00436508 66.7752083 257.96992034 62.20404434 257.92221832 C60.46182835 257.9074041 58.71953936 257.8994863 56.97726059 257.89864349 C54.53279129 257.89627214 52.08973316 257.86918096 49.64550781 257.83642578 C48.92837112 257.84145615 48.21123444 257.84648651 47.47236633 257.85166931 C42.45971988 257.74803854 39.57671993 256.43849542 35.71240234 253.29052734 C34.13784495 250.14141256 34.36441116 247.77043919 34.71240234 244.29052734 C36.32272624 241.46693641 37.13512649 240.09501238 39.71240234 238.29052734 C43.46808486 237.39702271 47.15389457 237.49129444 50.9992981 237.54449463 C52.15301529 237.53669566 53.30673248 237.52889669 54.4954108 237.52086139 C57.69405568 237.50522219 60.89131359 237.5164238 64.08987641 237.53890872 C67.54050887 237.55660632 70.99099019 237.53965729 74.44161987 237.52684021 C80.41939531 237.50929035 86.39683945 237.51342836 92.37460709 237.5320816 C101.02066327 237.55885454 109.66641308 237.55067613 118.31248103 237.53359303 C132.34442376 237.50663188 146.37624719 237.50493412 160.40820312 237.52050781 C174.03126006 237.53554675 187.65427806 237.54369486 201.27734375 237.5390625 C202.53632814 237.53864273 202.53632814 237.53864273 203.82074656 237.53821447 C212.97991627 237.53488929 222.13908093 237.52877631 231.29824638 237.51934433 C232.10273335 237.51852129 232.90722032 237.51769826 233.73608568 237.51685028 C236.95166697 237.51352295 240.16724818 237.5101656 243.38282906 237.50645086 C252.80469609 237.49563661 262.22646967 237.49356307 271.64833473 237.50714388 C277.55534409 237.5154556 283.46233096 237.51739263 289.36934532 237.51428112 C292.780334 237.51281675 296.19123716 237.51482213 299.602211 237.52556419 C303.29469633 237.53562313 306.98698294 237.53362865 310.67947388 237.52862549 C311.76457217 237.53465294 312.84967047 237.54068039 313.96765053 237.5468905 C315.44546134 237.54124255 315.44546134 237.54124255 316.95312691 237.5354805 C317.80592645 237.53645461 318.65872599 237.53742873 319.53736794 237.53843236 C322.00588605 237.42485988 322.00588605 237.42485988 324.71240234 235.29052734 C325.17925049 232.61123785 325.17925049 232.61123785 325.11083984 229.47802734 C325.11470703 228.32044922 325.11857422 227.16287109 325.12255859 225.97021484 C325.11095703 224.75591797 325.09935547 223.54162109 325.08740234 222.29052734 C325.10480469 220.46908203 325.10480469 220.46908203 325.12255859 218.61083984 C325.11869141 217.45326172 325.11482422 216.29568359 325.11083984 215.10302734 C325.10745605 214.03697266 325.10407227 212.97091797 325.10058594 211.87255859 C324.90843506 210.59445312 324.90843506 210.59445312 324.71240234 209.29052734 C320.88701151 206.74026679 317.80663609 207.01940413 313.37490845 207.0524292 C312.51424345 207.05087019 311.65357846 207.04931118 310.76683271 207.04770494 C307.87181739 207.04474038 304.97702488 207.05594017 302.08203125 207.06689453 C300.01091006 207.06741855 297.93978844 207.06698365 295.8686676 207.06565857 C291.40299034 207.06432306 286.93736792 207.06874664 282.47169876 207.07726288 C275.41301281 207.08961888 268.3544295 207.08270969 261.29574585 207.07183838 C241.22171299 207.04333721 221.14776786 207.03096811 201.07373047 207.06054688 C189.99133394 207.07671494 178.90916056 207.07162922 167.82678735 207.0427506 C161.95959578 207.02843202 156.09286849 207.0254902 150.22569656 207.04897308 C144.70813652 207.07105266 139.19129848 207.06564351 133.67376518 207.03898811 C131.64726326 207.03420594 129.62070732 207.03972291 127.59426689 207.0562191 C124.82991514 207.07724038 122.06812662 207.06151813 119.30386353 207.03656006 C118.09729424 207.05898557 118.09729424 207.05898557 116.86634982 207.08186412 C113.90040194 207.02520235 111.46895313 206.88958023 109.08838153 205.00459337 C106.94652021 202.5556628 105.77488622 200.68790287 105.26708984 197.45849609 C107.51309173 176.55972243 115.63598649 155.3669432 130.71240234 140.29052734 C130.39198837 137.68772166 130.39198837 137.68772166 129.71240234 135.29052734 C119.08628461 134.12434688 119.08628461 134.12434688 108.95849609 136.62646484 C106.90572603 138.48460734 105.06195825 140.42494584 103.26416016 142.52929688 C100.53147708 145.63086637 97.60318067 148.54110363 94.69262695 151.47485352 C93.03040402 153.15207875 91.38206009 154.84320406 89.74975586 156.54956055 C80.58550385 165.94384564 71.91474386 170.20993053 58.75292969 170.56518555 C56.51813683 170.58494871 54.28321937 170.59310377 52.04833984 170.59130859 C50.85689362 170.59559372 49.66544739 170.59987885 48.43789673 170.60429382 C45.93174879 170.61001122 43.42558427 170.61055661 40.91943359 170.60620117 C37.09232358 170.60303142 33.26598006 170.6265679 29.43896484 170.65185547 C26.99625748 170.65412778 24.55354805 170.65483227 22.11083984 170.65380859 C20.97214447 170.66301834 19.8334491 170.67222809 18.6602478 170.68171692 C11.51978179 170.64021078 5.92766438 170.46483063 0.60424805 165.20922852 C0.03794678 164.42523682 -0.52835449 163.64124512 -1.11181641 162.83349609 C-2.06604492 161.53508789 -2.06604492 161.53508789 -3.03955078 160.21044922 C-3.67828125 159.30875 -4.31701172 158.40705078 -4.97509766 157.47802734 C-5.62542969 156.58792969 -6.27576172 155.69783203 -6.94580078 154.78076172 C-9.57663874 151.16302431 -12.12818767 147.58767873 -14.36962891 143.71630859 C-16.0585117 141.10906316 -16.0585117 141.10906316 -18.72338867 140.54003906 C-23.71744535 140.19043115 -28.31656912 141.02317563 -33.23291016 141.87255859 C-34.28034393 142.04679855 -35.32777771 142.22103851 -36.4069519 142.40055847 C-38.61486142 142.77010008 -40.82197653 143.14441568 -43.02832031 143.52319336 C-46.40576304 144.10185636 -49.78576287 144.66313425 -53.16650391 145.22216797 C-55.31381273 145.58376993 -57.46095438 145.94636635 -59.60791016 146.31005859 C-60.61838409 146.47786331 -61.62885803 146.64566803 -62.66995239 146.81855774 C-64.08194412 147.06342171 -64.08194412 147.06342171 -65.52246094 147.31323242 C-66.34819611 147.45392654 -67.17393127 147.59462067 -68.02468872 147.73957825 C-70.38813205 148.31500439 -72.22275431 149.00403322 -74.28759766 150.29052734 C-76.20420413 154.50842735 -76.54393738 158.26661657 -76.55322266 162.86083984 C-76.55580078 164.08673828 -76.55837891 165.31263672 -76.56103516 166.57568359 C-76.54943359 168.47640625 -76.54943359 168.47640625 -76.53759766 170.41552734 C-76.54533203 171.69041016 -76.55306641 172.96529297 -76.56103516 174.27880859 C-76.55716797 176.11378906 -76.55716797 176.11378906 -76.55322266 177.98583984 C-76.5509668 179.09975098 -76.54871094 180.21366211 -76.54638672 181.36132812 C-76.29437252 184.21384359 -75.76771274 185.87339799 -74.28759766 188.29052734 C-72.46228516 188.07396484 -72.46228516 188.07396484 -70.60009766 187.85302734 C-69.91560547 187.77181641 -69.23111328 187.69060547 -68.52587891 187.60693359 C-66.28548831 187.32608222 -66.28548831 187.32608222 -64.11572266 186.77099609 C-46.57990495 183.79184474 -29.27473453 187.05588549 -14.59228516 197.14208984 C-0.65610935 207.83927678 8.28425289 221.64905161 11.31396484 239.06005859 C13.41192169 256.06996362 8.98621324 271.52319427 -1.53759766 285.04052734 C-12.84054015 298.15495978 -28.08816977 306.69419347 -45.45410156 308.51806641 C-63.657786 309.78669925 -81.02520567 305.44408887 -95.10473633 293.38085938 C-107.66405875 282.07136766 -115.18705309 268.03886871 -116.54150391 251.11865234 C-117.01292462 237.67555838 -113.97529634 224.47356741 -106.28759766 213.29052734 C-104.92121005 211.919088 -103.53914483 210.56310685 -102.14257812 209.22241211 C-97.30771637 203.84199229 -97.18885738 199.33177189 -97.35791016 192.31787109 C-97.35177704 191.19538467 -97.34564392 190.07289825 -97.33932495 188.91639709 C-97.32646778 185.35243496 -97.36724075 181.79168053 -97.41259766 178.22802734 C-97.42609875 174.66156867 -97.42832992 171.09542217 -97.42160034 167.52894592 C-97.42082584 165.31734813 -97.43340702 163.1056919 -97.4614563 160.89427185 C-97.51696933 151.46067261 -96.55491624 143.9090005 -89.82275391 136.72802734 C-85.26770634 132.44092375 -78.74150735 128.29052734 -72.28759766 128.29052734 C-72.32564112 119.49323832 -72.38498235 110.69642573 -72.4715004 101.89947891 C-72.51100585 97.8146428 -72.54317903 93.73002323 -72.55859375 89.64501953 C-72.57374051 85.70253059 -72.60814971 81.76063686 -72.65590668 77.81841278 C-72.67074113 76.3145846 -72.67863986 74.81067144 -72.67948151 73.30677032 C-72.68184693 71.19947394 -72.70888704 69.09382826 -72.74169922 66.98681641 C-72.75058167 65.78768616 -72.75946411 64.58855591 -72.76861572 63.35308838 C-73.39093127 59.680746 -74.31808395 58.48128029 -77.28759766 56.29052734 C-78.42197266 56.14615234 -79.55634766 56.00177734 -80.72509766 55.85302734 C-85.20761048 55.14526216 -86.5789614 53.8754871 -89.28759766 50.29052734 C-90.59159767 46.46002729 -90.4963148 44.83319191 -89.03759766 41.04052734 C-87.28759766 38.29052734 -87.28759766 38.29052734 -84.28759766 36.29052734 C-75.98552534 35.09007549 -69.11534698 36.40006329 -62.28759766 41.29052734 C-56.68471452 46.34369365 -52.7835324 52.07983621 -51.88887024 59.67588806 C-51.87776718 60.85059158 -51.86666412 62.0252951 -51.85522461 63.2355957 C-51.83993713 64.21736282 -51.83993713 64.21736282 -51.82434082 65.21896362 C-51.79443958 67.35618909 -51.78498076 69.49296478 -51.77587891 71.63037109 C-51.75901511 73.12253787 -51.7408626 74.61469058 -51.72148132 76.10682678 C-51.6741593 80.01445115 -51.64423539 83.9220185 -51.61804199 87.82983398 C-51.58814609 91.82530982 -51.541647 95.82058953 -51.49658203 99.81591797 C-51.41075173 107.64069006 -51.34331699 115.46547672 -51.28759766 123.29052734 C-42.05439653 122.79190009 -33.30303882 121.2487994 -24.28759766 119.29052734 C-24.27879829 117.38158691 -24.27879829 117.38158691 -24.26982117 115.43408203 C-24.21255443 103.42807575 -24.13977184 91.42224991 -24.05188274 79.41642761 C-24.00719676 73.24442862 -23.96793648 67.07249537 -23.94116211 60.90039062 C-23.91511183 54.94155435 -23.87469659 48.9829713 -23.82441139 43.02429199 C-23.80775446 40.75340937 -23.7962329 38.48248296 -23.78998375 36.21154785 C-23.78033018 33.02536611 -23.75225473 29.8398305 -23.7199707 26.65380859 C-23.72212334 25.2522628 -23.72212334 25.2522628 -23.72431946 23.82240295 C-23.63210211 17.36729956 -22.86245441 11.4511335 -18.63916016 6.26708984 C-17.78451172 5.59806641 -17.78451172 5.59806641 -16.91259766 4.91552734 C-16.06568359 4.22330078 -16.06568359 4.22330078 -15.20166016 3.51708984 C-10.27046292 0.35709814 -5.74414892 -0.0067711 0 0 Z M-2.20146179 20.51882935 C-3.61030382 22.81692361 -3.65572248 24.30182075 -3.64404297 26.99414062 C-3.64694839 27.95868164 -3.64985382 28.92322266 -3.65284729 29.91699219 C-3.64059616 30.97096191 -3.62834503 32.02493164 -3.61572266 33.11083984 C-3.61471054 34.2175 -3.61369843 35.32416016 -3.61265564 36.46435547 C-3.60443779 40.11504194 -3.57299788 43.76500881 -3.53759766 47.41552734 C-3.51823452 49.94140443 -3.49911254 52.46728338 -3.48022461 54.99316406 C-3.44957441 58.88134709 -3.41606369 62.76941624 -3.37471008 66.65750122 C-3.29927979 74.10769737 -3.30118207 81.55036465 -3.39956665 89.00027466 C-3.45188369 93.42571104 -3.46040314 97.85059345 -3.46057129 102.27630615 C-3.47015014 104.34634375 -3.49813708 106.41638937 -3.54577637 108.48590088 C-3.79023059 119.71497194 -3.54715686 128.02827644 4.24458313 136.63699341 C5.20321031 137.63711099 6.1778061 138.62212897 7.16653442 139.59249878 C8.71240234 141.29052734 8.71240234 141.29052734 10.24533081 143.6333313 C13.35063398 148.41510129 13.35063398 148.41510129 18.18058777 151.13259888 C21.13837095 151.48048429 23.96906944 151.53886559 26.94677734 151.48583984 C28.55749115 151.49875565 28.55749115 151.49875565 30.20074463 151.51193237 C32.46672322 151.51803908 34.73286174 151.50155325 36.99853516 151.46386719 C40.44067678 151.41583053 43.87215912 151.46332046 47.31396484 151.52099609 C60.73667278 151.81636672 60.73667278 151.81636672 72.39599609 146.11083984 C73.88737739 144.55274942 75.33397486 142.94938286 76.71240234 141.29052734 C77.86581879 140.17144059 79.02744344 139.06068838 80.20068359 137.96240234 C81.14760998 136.99381008 82.08929305 136.02005571 83.02490234 135.04052734 C85.8787686 132.08153913 88.74563558 129.20479736 91.92333984 126.59130859 C94.75245353 124.37181234 94.75245353 124.37181234 97.02490234 121.72802734 C100.10197303 118.93719579 102.95095314 117.771048 106.82177734 116.38037109 C108.82495164 115.47282273 108.82495164 115.47282273 109.44473267 113.64326477 C109.82763508 110.2776656 108.89633012 107.78458109 107.88574219 104.55688477 C107.67934113 103.88789154 107.47294006 103.21889832 107.26028442 102.52963257 C106.57437499 100.3152567 105.87399941 98.10574482 105.17333984 95.89599609 C104.68979442 94.34607452 104.20711155 92.79588361 103.72525024 91.24543762 C102.45066259 87.1531605 101.16359549 83.06490922 99.87414551 78.97729492 C98.83693539 75.68236242 97.80828515 72.3847908 96.78020287 69.08700085 C92.92448695 56.70233885 92.92448695 56.70233885 88.99676514 44.34042358 C88.11720911 41.59843957 87.28500491 38.84721211 86.47930908 36.08267212 C86.07108279 34.7382283 85.66262468 33.39385484 85.25390625 32.04956055 C84.73444931 30.27643242 84.73444931 30.27643242 84.20449829 28.46748352 C82.13232546 24.05543328 79.38738405 21.40225088 74.78163147 19.48809814 C71.7153422 19.19532765 68.6854712 19.14584239 65.60473633 19.12939453 C64.54307251 19.12194717 64.54307251 19.12194717 63.45996094 19.11434937 C61.12612935 19.09978119 58.79236561 19.09293667 56.45849609 19.08740234 C54.83472187 19.08164893 53.21094766 19.07589122 51.58717346 19.07012939 C48.1869373 19.05963634 44.78672468 19.05378178 41.38647461 19.05029297 C37.02604787 19.04479484 32.66593127 19.02073187 28.30560207 18.99232101 C24.95391418 18.97372049 21.60230164 18.96849055 18.25056648 18.96695709 C16.64257158 18.96392697 15.03457811 18.95588635 13.42663383 18.94277191 C11.18107086 18.92575596 8.93627474 18.92757964 6.69067383 18.93408203 C5.41256332 18.9304364 4.13445282 18.92679077 2.81761169 18.92303467 C-0.22540045 19.0535891 -0.22540045 19.0535891 -2.20146179 20.51882935 Z M151.71240234 147.29052734 C151.09880859 147.82033203 150.48521484 148.35013672 149.85302734 148.89599609 C141.25491257 156.88277702 130.64048758 171.08810472 129.43505859 183.04052734 C129.50290112 185.491219 129.50290112 185.491219 131.71240234 187.29052734 C134.56454557 187.5990761 134.56454557 187.5990761 137.96897888 187.55122375 C138.61785586 187.5550493 139.26673284 187.55887485 139.93527275 187.56281632 C142.11944611 187.57317262 144.30335787 187.56914931 146.48754883 187.56518555 C148.04946131 187.56953059 149.61137166 187.57471303 151.17327881 187.58067322 C155.42325016 187.5940971 159.67313278 187.59463813 163.92312121 187.59210992 C167.46702421 187.59104247 171.01090908 187.59591778 174.5548082 187.60071534 C182.91342425 187.61182231 191.27199537 187.6122413 199.63061523 187.60620117 C208.26255462 187.60015958 216.89433109 187.61247434 225.52624267 187.63377124 C232.9292516 187.65136666 240.33220858 187.65739185 247.73523766 187.6541335 C252.16026712 187.65231715 256.58518037 187.65499159 261.01019096 187.66884804 C265.17082572 187.68138833 269.33120588 187.67951856 273.49183655 187.66643715 C275.02089586 187.66406347 276.54997289 187.66683425 278.07901192 187.67506027 C280.16258745 187.68546329 282.24529844 187.67748035 284.32884216 187.66474915 C285.49599982 187.66491689 286.66315748 187.66508463 287.86568356 187.66525745 C290.71384481 187.51996748 290.71384481 187.51996748 292.6194315 185.90971661 C293.9438292 184.29996425 293.9438292 184.29996425 293.58349609 182.00927734 C289.95439377 170.68257232 283.31495082 161.26105031 275.71240234 152.29052734 C275.08849609 151.55189453 274.46458984 150.81326172 273.82177734 150.05224609 C258.82740875 133.78661582 236.38511215 125.27583121 214.67724609 124.13037109 C190.98499844 123.51602871 169.53921056 131.73881878 151.71240234 147.29052734 Z M-87.49853516 221.88818359 C-94.6921512 231.54773352 -97.32712497 242.5561307 -95.72509766 254.54052734 C-93.12606132 266.78848606 -85.99300503 276.87955068 -75.47509766 283.72802734 C-63.70736903 290.1583806 -50.98491087 290.85264475 -38.21728516 287.33740234 C-31.17947663 284.82255876 -25.22289971 280.91128802 -20.28759766 275.29052734 C-19.79646484 274.77876953 -19.30533203 274.26701172 -18.79931641 273.73974609 C-11.60505369 265.97422679 -8.67900166 256.82285337 -8.28759766 246.29052734 C-9.15656477 237.10144981 -11.90882305 229.74337956 -17.28759766 222.29052734 C-18.00947266 221.23865234 -18.73134766 220.18677734 -19.47509766 219.10302734 C-28.4645723 210.1135527 -40.11666169 205.26377917 -52.78759766 204.79052734 C-66.99377339 205.30524386 -78.45865374 211.06553672 -87.49853516 221.88818359 Z M148.71240234 259.29052734 C148.87291062 262.41784982 149.46527145 263.98343498 151.43505859 266.43115234 C169.79385828 282.98165624 192.92669694 290.53567412 217.53662109 289.44287109 C236.71111848 288.10031203 253.94944756 280.38547825 268.71240234 268.29052734 C269.70240234 267.58927734 270.69240234 266.88802734 271.71240234 266.16552734 C273.89764385 264.4030844 273.89764385 264.4030844 274.64990234 261.66552734 C274.67052734 260.88177734 274.69115234 260.09802734 274.71240234 259.29052734 C272.18675953 256.76488453 271.349538 257.03950455 267.85375977 257.03656006 C266.82737396 257.03092041 265.80098816 257.02528076 264.74349976 257.01947021 C263.6130423 257.02351868 262.48258484 257.02756714 261.31787109 257.03173828 C260.13085602 257.02823364 258.94384094 257.024729 257.72085571 257.02111816 C254.46055859 257.01380955 251.2004231 257.01554296 247.94012833 257.02187634 C244.53242903 257.02693054 241.12474073 257.0222465 237.71704102 257.019104 C231.99379531 257.01546266 226.27060117 257.02026784 220.54736328 257.02978516 C213.92514125 257.04067006 207.30304237 257.0371446 200.68082333 257.02613235 C195.00095787 257.01706423 189.32112955 257.01577185 183.64125919 257.02100968 C180.24636376 257.02413202 176.85152626 257.02453155 173.45663452 257.01793671 C169.67331509 257.0128812 165.8902351 257.02056816 162.10693359 257.03173828 C160.41124741 257.02566559 160.41124741 257.02566559 158.68130493 257.01947021 C157.14172623 257.02792969 157.14172623 257.02792969 155.57104492 257.03656006 C154.22820183 257.03769114 154.22820183 257.03769114 152.85823059 257.03884506 C150.49882904 257.09081973 150.49882904 257.09081973 148.71240234 259.29052734 Z " fill="#000000" transform="translate(141.28759765625,101.70947265625)"/>
<path d="M0 0 C6.64493129 6.16627099 9.6859986 12.59551845 10.1875 21.66015625 C9.91537357 29.78993322 6.82405006 36.70505574 1.09375 42.4609375 C-5.16808758 47.22847293 -10.30150208 48.65722982 -18.15625 48.7109375 C-18.89488281 48.7315625 -19.63351563 48.7521875 -20.39453125 48.7734375 C-28.35877481 48.82962264 -35.03906087 45.88003582 -40.90625 40.4609375 C-46.09735501 33.95493518 -48.62820417 26.83560583 -47.90625 18.4609375 C-45.74781397 9.46482821 -41.46714435 2.82980786 -33.90625 -2.5390625 C-22.67265477 -8.25440043 -9.98469057 -8.06141001 0 0 Z M-26.90625 18.4609375 C-27.73958333 21.4609375 -27.73958333 21.4609375 -26.90625 24.4609375 C-24.44584272 27.78972382 -23.01014613 29.25395698 -18.90625 30.0234375 C-15.10140606 29.31002926 -13.4550695 28.3845834 -10.90625 25.4609375 C-10.07279185 22.00389254 -10.07279185 22.00389254 -10.90625 18.4609375 C-13.35223887 15.07971759 -14.79921559 13.69156967 -18.90625 12.8359375 C-22.9805856 13.68475742 -24.45030875 15.13819346 -26.90625 18.4609375 Z " fill="#000000" transform="translate(107.90625,327.5390625)"/>
<path d="M0 0 C2.8100346 1.79363911 4.50940468 3.01880935 6 6 C6.58599895 13.14918721 6.58599895 13.14918721 4.25390625 16.53515625 C2.15193473 18.83384608 0.08326694 20.72047237 -2.375 22.625 C-3.67050781 23.63626953 -3.67050781 23.63626953 -4.9921875 24.66796875 C-5.98476562 25.43753906 -6.97734375 26.20710938 -8 27 C-9.2327871 27.97397547 -10.46450427 28.94930627 -11.6953125 29.92578125 C-12.96342966 30.92982899 -14.23165807 31.93373622 -15.5 32.9375 C-16.11149902 33.42234863 -16.72299805 33.90719727 -17.35302734 34.40673828 C-22.25598002 38.26721182 -24.62993495 39.6370065 -31 39 C-34.67203986 36.6879749 -36.57659494 35.17059045 -38.0625 31.0625 C-37.95785854 25.93506845 -35.88085355 22.85708052 -32.25 19.32421875 C-31.17543191 18.4346173 -30.09164354 17.55606301 -29 16.6875 C-28.42910645 16.21965088 -27.85821289 15.75180176 -27.27001953 15.26977539 C-26.09543219 14.30885294 -24.91719387 13.352376 -23.73535156 12.40039062 C-22.08128436 11.0655947 -20.44076826 9.7161249 -18.8046875 8.359375 C-7.25541745 -1.18802157 -7.25541745 -1.18802157 0 0 Z " fill="#000000" transform="translate(238,197)"/>
</svg>
